<svg xmlns="http://www.w3.org/2000/svg" width="" viewBox="0 0 595.2 330.76"><g><path fill="#384F63" d="M32.88 19.2l-6.96 77.52 133.92-37.2z"/><path fill="#384F63" d="M160.08 59.52L105.6 161.04l114.96 10.32z"/><path fill="#384F63" d="M310.275 0H146.84l13 59.52z"/><path fill="#384F63" d="M221.04 171.6l146.64-97.2L326.502 0h-2.217z"/><path fill="#384F63" d="M25.92 96.72l36.24 153.36 44.16-88.8z"/><path fill="#384F63" d="M0 132.69l25.92-35.97L0 97.627z"/><path fill="#384F63" d="M32.88 19.2L38.924 0H0v1.617z"/><path fill="#384F63" d="M62.16 250.08l115.2 36.24 43.92-114.72z"/><path fill="#384F63" d="M0 340.806l62.16-90.726L0 212.42z"/><path fill="#384F63" d="M177.12 286.56l-125.28 50.4h181.44z"/><path fill="#384F63" d="M284.88 191.04l-107.52 95.28 163.2-21.6z"/><path fill="#384F63" d="M367.92 74.64l-83.04 117.84 85.92-13.68z"/><path fill="#384F63" d="M340.8 264.72l-50.4 71.76 56.4-.24z"/><path fill="#384F63" d="M367.92 74.88l75.6 20.4L372.416 0h-.953z"/><path fill="#384F63" d="M482.782 0H375.528L481.92 27.12z"/><path fill="#384F63" d="M481.92 27.36l-38.88 68.16 63.36 62.64z"/><path fill="#384F63" d="M481.92 27.12l82.56 62.16L564.24 0h-1.433z"/><path fill="#384F63" d="M595.2 104.287L564.48 89.04l-58.32 69.12 89.04-26.452z"/><path fill="#384F63" d="M595.2 0h-30.72l30.72 38.883z"/><path fill="#384F63" d="M421.68 224.64l-80.88 40.08 112.32 48.72z"/><path fill="#384F63" d="M371.04 178.8l50.88 46.08 20.64-129.6z"/><path fill="#384F63" d="M506.4 158.16l-84.96 66.72L540.24 204z"/><path fill="#384F63" d="M453.12 312.96l66.48 23.76L540 203.76z"/><path fill="#384F63" d="M595.2 153.022L540 203.76l55.2 7.636z"/><path fill="#384F63" d="M595.2 252.595l-74.4 81.485 74.4 2.977z"/><path fill="#384F63" d="M452.4 313.44l-73.44 21.6 81.6.48z"/></g></svg>
