<?xml version="1.0" encoding="UTF-8" standalone="no"?>
<svg
   width="1735.3451"
   height="181.48347"
   viewBox="0 0 1735.3451 181.48347"
   version="1.1"
   xml:space="preserve"
   style="clip-rule:evenodd;fill-rule:evenodd;stroke-miterlimit:10"
   id="svg99"
   sodipodi:docname="OM.svg"
   inkscape:version="1.2.2 (732a01da63, 2022-12-09)"
   xmlns:inkscape="http://www.inkscape.org/namespaces/inkscape"
   xmlns:sodipodi="http://sodipodi.sourceforge.net/DTD/sodipodi-0.dtd"
   xmlns="http://www.w3.org/2000/svg"
   xmlns:svg="http://www.w3.org/2000/svg"><defs
   id="defs103">
        
    
            
            
            
            
            
            
            
            
            
            
            
            
        </defs><sodipodi:namedview
   id="namedview101"
   pagecolor="#505050"
   bordercolor="#eeeeee"
   borderopacity="1"
   inkscape:showpageshadow="0"
   inkscape:pageopacity="0"
   inkscape:pagecheckerboard="0"
   inkscape:deskcolor="#505050"
   showgrid="false"
   inkscape:zoom="0.41394599"
   inkscape:cx="717.48491"
   inkscape:cy="32.61295"
   inkscape:window-width="1649"
   inkscape:window-height="1259"
   inkscape:window-x="2943"
   inkscape:window-y="595"
   inkscape:window-maximized="0"
   inkscape:current-layer="svg99" />
    <g
   id="g1091"
   inkscape:label="logo"
   transform="translate(-632.16301,-823.42148)"><g
     transform="matrix(4.16667,0,0,4.16667,2303.8393,916.88407)"
     id="g4">
                <path
   d="M 0,4.351 C -0.431,3.089 -1.067,1.924 -1.911,0.856 -2.786,-0.247 -3.793,-1.154 -4.935,-1.866 -6.079,-2.577 -7.456,-3.112 -9.069,-3.473 l 1.119,-0.886 c 0.808,0.157 1.573,0.345 2.297,0.563 0.721,0.218 1.403,0.484 2.041,0.797 0.635,0.314 1.228,0.683 1.77,1.107 0.546,0.423 1.046,0.924 1.504,1.501 0.817,1.033 1.41,2.255 1.778,3.665 0.367,1.412 0.455,2.928 0.256,4.55 L 0.578,8.71 C 0.621,7.066 0.43,5.612 0,4.351"
   style="fill:#a2b039;fill-rule:nonzero"
   id="path2" />
            </g><g
     transform="matrix(4.16667,0,0,4.16667,2326.6852,899.56322)"
     id="g8">
                <path
   d="M 0,6.847 C -0.691,4.95 -1.686,3.188 -2.975,1.559 c -1.332,-1.684 -2.851,-3.083 -4.555,-4.2 -1.705,-1.116 -3.745,-1.983 -6.119,-2.603 l 1.587,-1.257 c 1.189,0.276 2.315,0.595 3.382,0.955 1.067,0.363 2.074,0.794 3.021,1.292 0.948,0.5 1.831,1.079 2.647,1.736 0.816,0.657 1.573,1.427 2.271,2.309 1.248,1.576 2.177,3.421 2.787,5.534 0.61,2.113 0.815,4.368 0.615,6.766 l -1.59,1.257 C 1.052,10.908 0.694,8.742 0,6.847"
   style="fill:#a2b039;fill-rule:nonzero"
   id="path6" />
            </g><g
     transform="matrix(4.16667,0,0,4.16667,2352.6144,879.2632)"
     id="g12">
                <path
   d="M 0,9.14 C -0.945,6.705 -2.257,4.426 -3.938,2.304 c -1.733,-2.191 -3.691,-4.031 -5.87,-5.519 -2.176,-1.486 -4.764,-2.672 -7.76,-3.555 l 1.936,-1.532 c 1.498,0.4 2.919,0.85 4.271,1.352 1.346,0.503 2.626,1.09 3.83,1.762 1.205,0.675 2.332,1.444 3.381,2.313 1.047,0.868 2.027,1.875 2.935,3.024 C 0.41,2.201 1.648,4.583 2.497,7.291 3.346,10 3.693,12.874 3.539,15.91 L 1.604,17.442 C 1.479,14.343 0.945,11.576 0,9.14"
   style="fill:#a2b039;fill-rule:nonzero"
   id="path10" />
            </g><g
     transform="matrix(-2.5865854,-3.2666068,-3.2666068,2.5865854,2261.631,935.89242)"
     id="g16">
                <path
   d="m -2.213,-4.577 c -1.561,-0.001 -2.827,1.264 -2.826,2.825 0,1.56 1.264,2.824 2.826,2.825 1.559,-10e-4 2.825,-1.267 2.825,-2.827 -0.001,-1.56 -1.265,-2.824 -2.825,-2.823"
   style="fill:#a2b039;fill-rule:nonzero"
   id="path14" />
            </g><g
     id="g66"
     transform="scale(4.16667)">
                <g
   transform="matrix(40,0,0,40,149.999,231.699)"
   id="g20">
                    <path
   d="m 0.043,-0.354 c 0,-0.072 0.011,-0.134 0.033,-0.183 0.016,-0.037 0.039,-0.069 0.067,-0.098 0.028,-0.029 0.059,-0.051 0.092,-0.065 0.045,-0.019 0.096,-0.028 0.155,-0.028 0.105,0 0.19,0.033 0.253,0.098 0.063,0.066 0.095,0.157 0.095,0.273 0,0.116 -0.032,0.206 -0.094,0.271 C 0.581,-0.02 0.497,0.012 0.392,0.012 0.285,0.012 0.201,-0.02 0.138,-0.085 0.075,-0.15 0.043,-0.24 0.043,-0.354 Z m 0.149,-0.004 c 0,0.081 0.019,0.142 0.057,0.184 0.037,0.042 0.084,0.063 0.142,0.063 0.058,0 0.105,-0.021 0.142,-0.063 0.037,-0.041 0.055,-0.103 0.055,-0.186 0,-0.082 -0.018,-0.144 -0.054,-0.184 -0.036,-0.04 -0.083,-0.06 -0.143,-0.06 -0.059,0 -0.107,0.02 -0.144,0.061 -0.036,0.041 -0.055,0.102 -0.055,0.185 z"
   style="fill:#58585a;fill-rule:nonzero"
   id="path18" />
                </g>
                <g
   transform="matrix(40,0,0,40,183.651,231.699)"
   id="g24">
                    <path
   d="m 0.073,0 v -0.716 h 0.232 c 0.088,0 0.145,0.004 0.172,0.011 0.041,0.011 0.075,0.034 0.103,0.07 0.027,0.036 0.041,0.082 0.041,0.139 0,0.044 -0.008,0.081 -0.024,0.111 -0.016,0.03 -0.036,0.054 -0.061,0.071 -0.024,0.017 -0.049,0.028 -0.075,0.034 -0.034,0.007 -0.084,0.01 -0.149,0.01 H 0.217 V 0 Z m 0.144,-0.595 v 0.203 h 0.079 c 0.057,0 0.095,-0.003 0.115,-0.011 C 0.43,-0.41 0.445,-0.422 0.456,-0.438 0.467,-0.454 0.472,-0.472 0.472,-0.494 0.472,-0.52 0.465,-0.541 0.449,-0.558 0.434,-0.575 0.415,-0.586 0.391,-0.59 0.374,-0.593 0.339,-0.595 0.287,-0.595 Z"
   style="fill:#58585a;fill-rule:nonzero"
   id="path22" />
                </g>
                <g
   transform="matrix(40,0,0,40,212.868,231.699)"
   id="g28">
                    <path
   d="m 0.073,0 v -0.716 h 0.531 v 0.121 H 0.217 v 0.159 h 0.36 v 0.121 h -0.36 v 0.194 h 0.4 V 0 Z"
   style="fill:#58585a;fill-rule:nonzero"
   id="path26" />
                </g>
                <g
   transform="matrix(40,0,0,40,242.086,231.699)"
   id="g32">
                    <path
   d="m 0.074,0 v -0.716 h 0.141 l 0.293,0.478 V -0.716 H 0.642 V 0 H 0.497 L 0.208,-0.467 V 0 Z"
   style="fill:#58585a;fill-rule:nonzero"
   id="path30" />
                </g>
                <g
   transform="matrix(40,0,0,40,288.471,231.699)"
   id="g36">
                    <path
   d="m 0.074,0 v -0.716 h 0.143 l 0.169,0.507 c 0.016,0.047 0.027,0.083 0.034,0.106 0.009,-0.026 0.021,-0.064 0.038,-0.115 L 0.63,-0.716 H 0.757 V 0 H 0.666 V -0.599 L 0.458,0 H 0.373 L 0.166,-0.609 V 0 Z"
   style="fill:#58585a;fill-rule:nonzero"
   id="path34" />
                </g>
                <g
   transform="matrix(40,0,0,40,324.329,231.699)"
   id="g40">
                    <path
   d="m 0.048,-0.349 c 0,-0.118 0.032,-0.211 0.096,-0.279 0.064,-0.067 0.146,-0.101 0.247,-0.101 0.066,0 0.126,0.016 0.179,0.048 0.053,0.031 0.093,0.075 0.121,0.132 0.028,0.056 0.042,0.12 0.042,0.192 0,0.073 -0.015,0.138 -0.044,0.195 C 0.66,-0.105 0.618,-0.061 0.564,-0.032 0.511,-0.003 0.453,0.012 0.391,0.012 0.323,0.012 0.263,-0.004 0.21,-0.037 0.157,-0.069 0.117,-0.114 0.089,-0.17 0.062,-0.226 0.048,-0.286 0.048,-0.349 Z m 0.098,0.002 c 0,0.086 0.023,0.154 0.07,0.204 0.046,0.049 0.104,0.074 0.174,0.074 0.071,0 0.13,-0.025 0.176,-0.075 0.046,-0.05 0.069,-0.121 0.069,-0.213 0,-0.059 -0.01,-0.11 -0.029,-0.153 -0.02,-0.043 -0.049,-0.077 -0.087,-0.101 -0.038,-0.024 -0.08,-0.036 -0.127,-0.036 -0.067,0 -0.125,0.023 -0.173,0.069 -0.049,0.046 -0.073,0.123 -0.073,0.231 z"
   style="fill:#58585a;fill-rule:nonzero"
   id="path38" />
                </g>
                <g
   transform="matrix(40,0,0,40,357.98,231.699)"
   id="g44">
                    <path
   d="M 0.282,0 0.004,-0.716 h 0.103 l 0.186,0.52 c 0.015,0.042 0.027,0.081 0.038,0.117 0.011,-0.039 0.023,-0.078 0.038,-0.117 l 0.194,-0.52 H 0.659 L 0.379,0 Z"
   style="fill:#58585a;fill-rule:nonzero"
   id="path42" />
                </g>
                <g
   transform="matrix(40,0,0,40,387.198,231.699)"
   id="g48">
                    <path
   d="m 0.079,0 v -0.716 h 0.518 v 0.085 H 0.174 v 0.219 H 0.57 v 0.084 H 0.174 v 0.244 H 0.613 V 0 Z"
   style="fill:#58585a;fill-rule:nonzero"
   id="path46" />
                </g>
                <g
   transform="matrix(40,0,0,40,416.416,231.699)"
   id="g52">
                    <path
   d="m 0.074,0 v -0.716 h 0.143 l 0.169,0.507 c 0.016,0.047 0.027,0.083 0.034,0.106 0.009,-0.026 0.021,-0.064 0.038,-0.115 L 0.63,-0.716 H 0.757 V 0 H 0.666 V -0.599 L 0.458,0 H 0.373 L 0.166,-0.609 V 0 Z"
   style="fill:#58585a;fill-rule:nonzero"
   id="path50" />
                </g>
                <g
   transform="matrix(40,0,0,40,452.274,231.699)"
   id="g56">
                    <path
   d="m 0.079,0 v -0.716 h 0.518 v 0.085 H 0.174 v 0.219 H 0.57 v 0.084 H 0.174 v 0.244 H 0.613 V 0 Z"
   style="fill:#58585a;fill-rule:nonzero"
   id="path54" />
                </g>
                <g
   transform="matrix(40,0,0,40,481.491,231.699)"
   id="g60">
                    <path
   d="m 0.076,0 v -0.716 h 0.097 l 0.376,0.562 V -0.716 H 0.64 V 0 H 0.543 L 0.167,-0.563 V 0 Z"
   style="fill:#58585a;fill-rule:nonzero"
   id="path58" />
                </g>
                <g
   transform="matrix(40,0,0,40,512.916,231.699)"
   id="g64">
                    <path
   d="M 0.259,0 V -0.631 H 0.023 v -0.085 h 0.568 v 0.085 H 0.354 V 0 Z"
   style="fill:#58585a;fill-rule:nonzero"
   id="path62" />
                </g>
            </g><g
     transform="matrix(4.16667,0,0,4.16667,147.90303,-652.00885)"
     id="g70">
                <rect
   x="243.66701"
   y="354.103"
   width="2.3329999"
   height="43.556"
   style="fill:#a2b039"
   id="rect68" />
            </g></g><g
   id="g1054"
   inkscape:label="icon"
   style="display:none"
   transform="translate(-632.16301,-823.42148)"><g
     transform="matrix(4.16667,0,0,4.16667,414.72117,929.84241)"
     id="g74">
                <path
   d="m 0,-0.52 c 0,6.559 4.319,10.718 9.958,10.718 5.399,0 9.838,-3.999 9.838,-10.718 0,-5.159 -3.399,-9.279 -8.318,-10.079 -1.2,-0.159 -2.36,-0.159 -3.479,0 C 3.159,-9.839 0,-5.959 0,-0.52 m -3,-0.12 c 0,-6.279 4.24,-11.638 10.599,-12.638 1.479,-0.2 2.839,-0.16 4.239,0 6.159,0.96 10.918,6.079 10.918,12.638 0,8.318 -5.999,13.598 -12.798,13.598 C 2.759,12.958 -3,7.838 -3,-0.64"
   style="fill:#58585a;fill-rule:nonzero"
   id="path72" />
            </g><g
     transform="matrix(4.16667,0,0,4.16667,482.20872,962.83827)"
     id="g78">
                <path
   d="m 0,-14.169 c 0.251,-0.389 0.754,-0.274 0.754,0.183 V -0.16 c 0,0.526 -0.777,0.549 -0.777,0 v -12.592 l -5.896,9.256 c -0.183,0.343 -0.618,0.343 -0.8,0 l -5.897,-9.21 V -0.16 c 0,0.549 -0.777,0.526 -0.777,0 v -13.826 c 0,-0.457 0.503,-0.572 0.732,-0.183 l 6.353,9.896 z"
   style="fill:#58585a;fill-rule:nonzero;stroke:#58595b;stroke-width:1px"
   id="path76" />
            </g><g
     transform="matrix(4.16667,0,0,4.16667,528.82126,883.82571)"
     id="g82">
                <path
   d="M 0,2.411 C -0.238,1.712 -0.591,1.067 -1.059,0.475 -1.543,-0.136 -2.101,-0.639 -2.733,-1.033 -3.368,-1.427 -4.13,-1.724 -5.024,-1.923 l 0.62,-0.492 c 0.447,0.088 0.871,0.192 1.272,0.312 0.4,0.121 0.778,0.269 1.131,0.442 0.352,0.175 0.681,0.379 0.981,0.614 0.302,0.234 0.579,0.511 0.833,0.831 0.453,0.572 0.781,1.25 0.985,2.031 0.203,0.782 0.252,1.621 0.142,2.52 L 0.32,4.826 C 0.344,3.915 0.238,3.11 0,2.411"
   style="fill:#a2b039;fill-rule:nonzero"
   id="path80" />
            </g><g
     transform="matrix(4.16667,0,0,4.16667,541.47543,874.23403)"
     id="g86">
                <path
   d="m 0,3.793 c -0.383,-1.051 -0.934,-2.027 -1.648,-2.93 -0.738,-0.932 -1.58,-1.708 -2.524,-2.326 -0.945,-0.619 -2.075,-1.099 -3.39,-1.443 l 0.88,-0.696 c 0.658,0.153 1.282,0.33 1.873,0.529 0.591,0.201 1.149,0.44 1.674,0.716 0.525,0.277 1.014,0.597 1.467,0.962 0.451,0.363 0.87,0.79 1.257,1.279 0.692,0.872 1.206,1.895 1.544,3.066 0.339,1.17 0.452,2.42 0.341,3.748 L 0.593,7.395 C 0.583,6.043 0.385,4.842 0,3.793"
   style="fill:#a2b039;fill-rule:nonzero"
   id="path84" />
            </g><g
     transform="matrix(4.16667,0,0,4.16667,555.84211,862.98819)"
     id="g90">
                <path
   d="M 0,5.063 C -0.524,3.714 -1.25,2.452 -2.181,1.276 -3.142,0.062 -4.227,-0.958 -5.434,-1.782 -6.639,-2.605 -8.073,-3.262 -9.733,-3.751 L -8.66,-4.6 c 0.83,0.221 1.617,0.471 2.366,0.749 0.746,0.278 1.455,0.604 2.122,0.977 0.667,0.373 1.292,0.799 1.873,1.281 0.58,0.48 1.123,1.038 1.626,1.675 0.9,1.137 1.586,2.456 2.056,3.957 C 1.854,5.54 2.046,7.131 1.96,8.813 L 0.888,9.663 C 0.819,7.945 0.524,6.413 0,5.063"
   style="fill:#a2b039;fill-rule:nonzero"
   id="path88" />
            </g><g
     transform="matrix(-2.5864687,-3.2666984,-3.2666984,2.5864687,505.43374,894.35905)"
     id="g94">
                <path
   d="m -1.226,-2.536 c -0.865,0 -1.566,0.7 -1.566,1.565 0,0.863 0.7,1.565 1.566,1.565 0.864,-0.001 1.564,-0.702 1.565,-1.566 -0.001,-0.864 -0.701,-1.565 -1.565,-1.564"
   style="fill:#a2b039;fill-rule:nonzero"
   id="path92" />
            </g></g>
</svg>
